<?xml version="1.0" encoding="UTF-8"?>
<svg id="Calque_2" data-name="Calque 2" xmlns="http://www.w3.org/2000/svg" viewBox="0 0 306.88 335">
  <defs>
    <style>
      .cls-1 {
        fill: #fff;
      }

      .cls-2 {
        fill: #282425;
      }
    </style>
  </defs>
  <g id="Calque_1-2" data-name="Calque 1">
    <g>
      <circle class="cls-1" cx="153.44" cy="190.55" r="144.44"/>
      <g>
        <path class="cls-2" d="M181.9,175.41s-14.82,7.29-26.82,7.29-28.46-7.29-28.46-7.29c0,0,16.7,21.17,28.46,21.17s26.82-21.17,26.82-21.17Z"/>
        <path class="cls-2" d="M235.77,102.49c-18.58-36.23-73.39-75.98-73.39-75.98h-17.88s-54.81,39.52-73.39,75.75c-18.58,36.23-47.28,43.28-47.28,43.28,0,0,17.17,12.94,53.4-5.18,28.23-14.11,50.81-67.28,61.16-95.51-8.94,26.35-23.99,73.86-23.99,88.68,0,20.94,7.06,44.93,39.05,44.93s39.05-24.23,39.05-44.93c0-14.82-15.06-62.34-23.99-88.68,10.35,28.46,32.93,81.63,61.16,95.51,36.23,18.11,53.4,5.18,53.4,5.18,0,0-28.7-6.82-47.28-43.05ZM148.03,164.59c-1.41,0-3.06-.24-4.47-.71-1.18-.24-2.35-.94-3.53-1.65-.94-.71-1.88-2.12-3.06-3.06-2.12-1.65-4.47-3.06-7.06-4.23-.94-.47-1.65-.71-2.59-1.18l-.94-.47v-.47l1.18-.24c.94-.24,1.88-.24,3.06-.24,1.41,0,2.82.24,4.23.47,1.65.24,3.29.71,4.7,1.41,1.65.47,3.29,1.18,4.7,1.88,1.41.94,2.35,2.12,3.06,3.29.71,1.41,1.18,3.06,1.18,4.7l-.47.47ZM172.02,152.83c1.41-.24,2.82-.47,4.23-.47.94,0,1.88,0,3.06.24l1.18.24-.24.71-.94.47c-.94.24-1.88.71-2.59,1.18-1.18.47-2.35,1.18-3.29,1.88-1.18.71-2.35,1.41-3.53,2.35s-2.12,2.12-3.06,2.82c-.94.71-2.12,1.18-3.53,1.65-1.41.47-2.82.71-4.47.71l-.47-.47c0-1.65.47-3.29,1.18-4.7.71-1.41,1.65-2.59,2.82-3.29,1.41-.71,3.06-1.41,4.7-1.88,1.65-.71,3.29-.94,4.94-1.41Z"/>
        <g>
          <g>
            <circle class="cls-1" cx="189.47" cy="53.78" r="35.02" transform="translate(86.12 221.43) rotate(-74.2)"/>
            <circle class="cls-1" cx="122.25" cy="53.78" r="35.02"/>
            <circle class="cls-2" cx="122.25" cy="53.78" r="8.49"/>
            <circle class="cls-2" cx="189.47" cy="53.78" r="8.49" transform="translate(100.83 229.65) rotate(-79.1)"/>
          </g>
          <path class="cls-2" d="M101.73,29.36l-10.26-2.48C94.3,14.51,103.5,4.25,115.17,0l3.54,9.91c-8.49,3.18-14.86,10.61-16.98,19.46Z"/>
          <path class="cls-2" d="M210.69,29.36c-2.12-8.84-8.49-16.27-16.98-19.46l3.54-9.91c12.03,4.6,20.87,14.51,23.7,26.89l-10.26,2.48Z"/>
        </g>
        <g>
          <path class="cls-2" d="M305.12,216.27l-25.29,23.48,19.64-28.26c-10.38-3.94-29.48,4.39-45.91,20.83-18.83,18.83-27.03,41.15-18.32,49.86s31.03.51,49.86-18.32c17.37-17.37,25.68-37.71,20.03-47.59Z"/>
          <path class="cls-2" d="M132.14,250.48l-12.79-13.77,15.39,10.69c2.15-5.65-2.39-16.05-11.34-25-10.25-10.25-22.41-14.72-27.15-9.98-4.74,4.74-.28,16.9,9.98,27.15,9.46,9.46,20.53,13.99,25.91,10.91Z"/>
          <path class="cls-2" d="M1.76,216.27l25.29,23.48-19.64-28.26c10.38-3.94,29.48,4.39,45.91,20.83,18.83,18.83,27.03,41.15,18.32,49.86-8.71,8.71-31.03.51-49.86-18.32C4.42,246.49-3.9,226.16,1.76,216.27Z"/>
          <path class="cls-2" d="M174.74,250.48l12.79-13.77-15.39,10.69c-2.15-5.65,2.39-16.05,11.34-25,10.25-10.25,22.41-14.72,27.15-9.98,4.74,4.74.28,16.9-9.98,27.15-9.46,9.46-20.53,13.99-25.91,10.91Z"/>
        </g>
      </g>
    </g>
  </g>
</svg>